# xmcd
#
# Track frame offsets:
#	225
#	22954
#	36424
#	48659
#	62020
#	85970
#	103094
#	116146
#	132236
#	147041
#	158340
# Disc length: 2200 seconds
# Revision: 1
# Processed by: cddbd v1.5PL3 Copyright (c) Steve Scherf et al.
#
# Submitted via: libkcddb 0.10
#
DISCID=9208950b
DTITLE=Lonesome Boogie - Hey This is Our Town
DYEAR=1900
DGENRE=Blues
TTITLE0=Keep it to Yourself
TTITLE1=Burn Right Out of Here
TTITLE2=Hey This is Our Town
TTITLE3=Chicken Shack Boogie
TTITLE4=Live Again
TTITLE5=Rockinitis
TTITLE6=Love True Love
TTITLE7=Pine's Stomp
TTITLE8=You Don't Know
TTITLE9=Reflections of a Pine
TTITLE10=Zambuck Man
EXTD=
EXTT0=
EXTT1=
EXTT2=
EXTT3=
EXTT4=
EXTT5=
EXTT6=
EXTT7=
EXTT8=
EXTT9=
EXTT10=
PLAYORDER=
